# xmcd
#
# Track frame offsets:
#	150
#	12263
#	25670
#	37174
#	51419
#	65962
#	77004
#	91000
#	107749
#	120308
#	132205
#	139702
#	153125
#	168498
#	180592
#	196236
#	215125
#	229740
#	239151
#	252889
#
# Disc length: 3517 seconds
#
# Revision: 1
# Processed by: cddbd v1.5.2PL0 Copyright (c) Steve Scherf et al.
# Submitted via: EasyCDDAExtractor 9.1.1.2
#
DISCID=140dbb14
DTITLE=Frank Sinatra - Frank Sinatra Portrait - 24 Carat Gold Edition - Disc 5
DTITLE=Various Artist - My Shining Hour
DYEAR=1900
DGENRE=Blues
TTITLE0=Kiss Me Again
TTITLE1=The Music Stopped
TTITLE2=You've Got A Hold On Me
TTITLE3=A Lovely Way To Spend An Evening
TTITLE4=Close To You
TTITLE5=My Shining Hour
TTITLE6=And Then You Kissed Me
TTITLE7=Mighty Lak' A Rose
TTITLE8=Cradle Song
TTITLE9=I'll Follow My Secret Heart
TTITLE10=Just Close Your Eyes
TTITLE11=If You Are But A Dream
TTITLE12=Strange Music
TTITLE13=Dick Haymes, Dick Todd And Como  
TTITLE14=None But The Lonely Heart
TTITLE15=Ol' Man River
TTITLE16=Homesick That's All
TTITLE17=The Night Is Young And You Are So Beautiful 
TTITLE18=Was The Last Time I Saw You
TTITLE19=Don't Forget Tonight Tomorrow
EXTD=
EXTT0=
EXTT1=
EXTT2=
EXTT3=
EXTT4=
EXTT5=
EXTT6=
EXTT7=
EXTT8=
EXTT9=
EXTT10=
EXTT11=
EXTT12=
EXTT13=
EXTT14=
EXTT15=
EXTT16=
EXTT17=
EXTT18=
EXTT19=
PLAYORDER=
